<svg id="check_off_bk" xmlns="http://www.w3.org/2000/svg" width="18" height="18" viewBox="0 0 18 18">
  <rect id="Bounds" width="17.724" height="18" fill="none"/>
  <g id="Icon" transform="translate(-3 -3)" fill="none">
    <path d="M19,3H5A2.006,2.006,0,0,0,3,5V19a2.006,2.006,0,0,0,2,2H19a2.006,2.006,0,0,0,2-2V5a2.006,2.006,0,0,0-2-2Z" stroke="none"/>
    <path d="M 4.999998092651367 3.999998092651367 C 4.448598861694336 3.999998092651367 3.999998092651367 4.448598861694336 3.999998092651367 4.999998092651367 L 3.999998092651367 19 C 3.999998092651367 19.55139923095703 4.448598861694336 20 4.999998092651367 20 L 19 20 C 19.55139923095703 20 20 19.55139923095703 20 19 L 20 4.999998092651367 C 20 4.448598861694336 19.55139923095703 3.999998092651367 19 3.999998092651367 L 4.999998092651367 3.999998092651367 M 4.999998092651367 2.999998092651367 L 19 2.999998092651367 C 20.09999847412109 2.999998092651367 21 3.899999618530273 21 4.999998092651367 L 21 19 C 21 20.09999847412109 20.09999847412109 21 19 21 L 4.999998092651367 21 C 3.899999618530273 21 2.999998092651367 20.09999847412109 2.999998092651367 19 L 2.999998092651367 4.999998092651367 C 2.999998092651367 3.899999618530273 3.899999618530273 2.999998092651367 4.999998092651367 2.999998092651367 Z" stroke="none" fill="rgba(0,0,0,0.87)"/>
  </g>
</svg>
