<svg xmlns="http://www.w3.org/2000/svg" height="40" viewBox="0 -960 960 960" width="40"><path fill="#002266" stroke-width="1" d="M225.987-178.104q-46.244 0-78.731-32.517-32.487-32.517-32.487-78.969H53.847v-427.845q0-25.788 18.388-44.176 18.387-18.388 44.176-18.388h553.947v155.692h98.717l137.078 183.232v151.485h-67.846q0 46.452-32.52 78.969-32.521 32.517-78.978 32.517-46.351 0-78.785-32.517T615.59-289.59H337.486q0 46.512-32.627 78.999-32.627 32.487-78.872 32.487Zm.141-50.255q25.513 0 43.308-17.795 17.795-17.795 17.795-43.308 0-25.513-17.795-43.309-17.795-17.795-43.308-17.795-25.513 0-43.309 17.795-17.795 17.796-17.795 43.309 0 25.513 17.795 43.308 17.796 17.795 43.309 17.795ZM104.102-339.845h24.051q12.769-26.437 38.937-43.911 26.169-17.475 58.563-17.475 31.625 0 58.319 17.488 26.695 17.487 39.464 43.898h296.667v-389.899H116.411q-4.616 0-8.462 3.847-3.847 3.846-3.847 8.462v377.59Zm622.847 111.486q25.513 0 43.308-17.795 17.795-17.795 17.795-43.308 0-25.513-17.795-43.309-17.795-17.795-43.308-17.795-25.513 0-43.308 17.795-17.796 17.796-17.796 43.309 0 25.513 17.796 43.308 17.795 17.795 43.308 17.795ZM670.358-422.82h187.078L743.178-574.052h-72.82v151.232Zm-308.05-106.898Z"/></svg>