<svg xmlns="http://www.w3.org/2000/svg" height="40" viewBox="0 -960 960 960" width="40"><path fill="#002266" stroke-width="1" d="m422.82-336.36 266.358-266.614-35.793-35.794L422.82-408.204 305.436-525.589l-35.384 35.384L422.82-336.36ZM202.565-140.001q-25.705 0-44.134-18.43-18.43-18.429-18.43-44.134v-554.87q0-25.705 18.43-44.134 18.429-18.43 44.134-18.43h196.001q-.027-32.64 23.588-56.32 23.615-23.68 57.846-23.68 34.615 0 58.23 23.68 23.615 23.68 23.204 56.32h196.001q25.705 0 44.134 18.43 18.43 18.429 18.43 44.134v554.87q0 25.705-18.43 44.134-18.429 18.43-44.134 18.43h-554.87Zm0-50.255h554.87q4.616 0 8.462-3.847 3.847-3.846 3.847-8.462v-554.87q0-4.616-3.847-8.462-3.846-3.847-8.462-3.847h-554.87q-4.616 0-8.462 3.847-3.847 3.846-3.847 8.462v554.87q0 4.616 3.847 8.462 3.846 3.847 8.462 3.847Zm277.381-599.282q13.357 0 22.988-9.449 9.63-9.449 9.63-22.987 0-13.539-9.63-22.987-9.631-9.449-22.988-9.449-13.356 0-22.805 9.449-9.449 9.448-9.449 22.987 0 13.538 9.449 22.987 9.449 9.449 22.805 9.449Zm-289.69 599.282V-769.744-190.256Z"/></svg>