<svg xmlns="http://www.w3.org/2000/svg" width="28" height="28" viewBox="0 0 28 28">
  <g id="icon_outbox" transform="translate(-5 -5)">
    <g id="사각형_138" data-name="사각형 138" transform="translate(5 5)" fill="none" stroke="#fff" stroke-width="1.5">
      <rect width="28" height="28" rx="2" stroke="none"/>
      <rect x="0.75" y="0.75" width="26.5" height="26.5" rx="1.25" fill="none"/>
    </g>
    <path id="빼기_38" data-name="빼기 38" d="M26,9H2A2,2,0,0,1,0,7V0H9.625a4.537,4.537,0,0,0,1.283,3.181A4.285,4.285,0,0,0,14,4.5,4.444,4.444,0,0,0,18.374,0H28V7A2,2,0,0,1,26,9Z" transform="translate(5 24)" fill="#fff"/>
    <g id="그룹_82" data-name="그룹 82" transform="translate(12.875 10)">
      <rect id="사각형_140" data-name="사각형 140" width="6" height="8" transform="translate(3.125)" fill="#fff"/>
      <path id="다각형_23" data-name="다각형 23" d="M6,0l6,6H0Z" transform="translate(12.125 12) rotate(180)" fill="#fff"/>
    </g>
  </g>
</svg>
